<svg xmlns="http://www.w3.org/2000/svg" width="80" height="80" viewBox="0 0 80 80">
    <g fill="none" fill-rule="evenodd">
        <path fill="#CBF0C0" d="M80 40c0 22.091-17.909 40-40 40S0 62.091 0 40 17.909 0 40 0s40 17.909 40 40"/>
        <path fill="#0CA26B" d="M40 21.25V62.5S23.721 56.83 23.75 40.586c.023-12.762 0-13.922 0-13.922s8.354-.386 16.25-5.414z"/>
        <path fill="#22C288" d="M56.25 26.664S47.896 26.278 40 21.25V62.5s16.279-5.671 16.25-21.914c-.024-12.762 0-13.922 0-13.922"/>
        <path fill="#FFF" d="M50.977 33.33a1.033 1.033 0 0 0-1.46.022L37.44 45.807l-5.6-4.015a1.057 1.057 0 0 0-1.475 1.475l5.22 7.28c.032.044.084.076.12.12.274.361.644.666 1.125.849 1.065.407 2.274-.03 2.937-.958l11.33-15.889c.293-.407.25-.98-.12-1.34"/>
    </g>
</svg>
