<svg xmlns="http://www.w3.org/2000/svg" width="80" height="80" viewBox="0 0 80 80">
    <g fill="none" fill-rule="evenodd">
        <path fill="#CBF0C0" d="M80 40c0 22.091-17.909 40-40 40S0 62.091 0 40 17.909 0 40 0s40 17.909 40 40"/>
        <path fill="#22C288" d="M51.936 33.987h-12.83a1.974 1.974 0 0 1 0-3.948h12.83a1.974 1.974 0 0 1 0 3.948m-.987 15.79H44.04a1.974 1.974 0 0 1 0-3.948h6.908a1.974 1.974 0 0 1 0 3.947m-3.947 7.895h-15.79a1.974 1.974 0 0 1 0-3.947h15.79a1.974 1.974 0 0 1 0 3.947m-21.66-9.81v-.118c0-1.056.857-1.914 1.915-1.914h11.96c1.057 0 1.915.858 1.915 1.914v.119a1.915 1.915 0 0 1-1.916 1.914h-11.96a1.914 1.914 0 0 1-1.914-1.914m1.923-9.928h7.894a1.974 1.974 0 0 1 0 3.948h-7.894a1.974 1.974 0 0 1 0-3.948m0-15.79h15.79a1.974 1.974 0 0 1 0 3.948h-15.79a1.974 1.974 0 0 1 0-3.947m27.683-3.948h-31.58c-1.09 0-1.973.885-1.973 1.974v41.447c0 1.09.883 1.974 1.974 1.974h31.579c1.089 0 1.973-.884 1.973-1.974V20.171c0-1.09-.884-1.974-1.973-1.974"/>
        <path fill="#FFF" d="M46.65 38.069c-4.699 0-8.522-3.823-8.522-8.523 0-4.7 3.823-8.522 8.523-8.522 4.7 0 8.523 3.823 8.523 8.522 0 4.7-3.824 8.523-8.523 8.523m18.41 5.615l-8.97-8.112a11.136 11.136 0 0 0 1.773-6.026c0-6.183-5.03-11.214-11.213-11.214-6.184 0-11.215 5.03-11.215 11.214s5.031 11.215 11.215 11.215c2.542 0 4.88-.86 6.764-2.292.008.008.013.017.022.025l8.977 8.118c.377.34.851.509 1.322.509a1.973 1.973 0 0 0 1.325-3.437"/>
    </g>
</svg>
