<svg xmlns="http://www.w3.org/2000/svg" width="80" height="80" viewBox="0 0 80 80">
    <g fill="none" fill-rule="evenodd">
        <path fill="#CBF0C0" d="M80 40c0 22.091-17.909 40-40 40S0 62.091 0 40 17.909 0 40 0s40 17.909 40 40"/>
        <path fill="#0CA26B" d="M44.999 50a5 5 0 1 1-10 0 5 5 0 0 1 10 0M53.176 43.474a1.873 1.873 0 0 1-1.581-.865 13.7 13.7 0 0 0-11.596-6.359c-4.715 0-9.05 2.375-11.594 6.354a1.875 1.875 0 0 1-3.159-2.02A17.434 17.434 0 0 1 40 32.5a17.433 17.433 0 0 1 14.756 8.09 1.875 1.875 0 0 1-1.579 2.884"/>
        <path fill="#22C288" d="M59.905 36.746a1.873 1.873 0 0 1-1.493-.739c-4.419-5.803-11.13-9.132-18.413-9.132-7.283 0-13.993 3.328-18.41 9.129a1.876 1.876 0 0 1-2.984-2.271c5.132-6.742 12.931-10.608 21.393-10.608 8.466 0 16.264 3.867 21.397 10.61a1.875 1.875 0 0 1-1.49 3.011"/>
    </g>
</svg>
