<svg xmlns="http://www.w3.org/2000/svg" width="80" height="80" viewBox="0 0 80 80">
    <g fill="none" fill-rule="evenodd">
        <path fill="#CBF0C0" d="M80 40c0 22.091-17.909 40-40 40S0 62.091 0 40 17.909 0 40 0s40 17.909 40 40"/>
        <path fill="#22C288" d="M40 38.125a6.25 6.25 0 1 1 .001-12.501A6.25 6.25 0 0 1 40 38.125M23.75 31.25c0 8.975 16.25 32.5 16.25 32.5s16.25-23.525 16.25-32.5C56.25 22.275 48.975 15 40 15s-16.25 7.275-16.25 16.25z"/>
        <path fill="#0CA26B" d="M40 38.125a6.25 6.25 0 0 1 0-12.5V15c-8.975 0-16.25 7.275-16.25 16.25S40 63.75 40 63.75V38.125z"/>
    </g>
</svg>
