<svg xmlns="http://www.w3.org/2000/svg" width="80" height="80" viewBox="0 0 80 80">
    <g fill="none" fill-rule="evenodd">
        <path fill="#CBF0C0" d="M80 40c0 22.091-17.909 40-40 40S0 62.091 0 40 17.909 0 40 0s40 17.909 40 40"/>
        <g fill-rule="nonzero" transform="translate(15 14)">
            <path fill="#22C288" d="M24.518 29.384L10.87 38.07a5.515 5.515 0 1 1-1.602-2.716L21.75 27.41 9.472 17.268a6.303 6.303 0 1 1 2.25-2.229L23.782 25l8.717-14.873a5.91 5.91 0 1 1 2.757 1.528l-8.873 15.138 14.809 7.404a6.303 6.303 0 1 1-1.574 2.737l-15.1-7.55zm-.094 23.404a4.727 4.727 0 1 1 0-9.455 4.727 4.727 0 0 1 0 9.455z"/>
            <circle cx="24.03" cy="27.97" r="9.848" fill="#0CA26B"/>
        </g>
    </g>
</svg>
