<svg width="17" height="17" viewBox="0 0 17 17" fill="none" xmlns="http://www.w3.org/2000/svg">
    <path d="M0.166016 5.6665V9.00067H0.999349V13.9998H0.166016V16.4998H0.999349H3.49935H5.16602H7.66601H9.33268H11.8327H13.4993L15.9993 16.5007V16.4998H16.8327V13.9998H15.9993V9.00067H16.8327V5.6665L8.49935 0.666504L0.166016 5.6665ZM3.49935 13.9998V9.00067H5.16602V13.9998H3.49935ZM7.66601 13.9998V9.00067H9.33268V13.9998H7.66601ZM13.4993 13.9998H11.8327V9.00067H13.4993V13.9998ZM10.166 5.6665C10.166 6.58651 9.41935 7.33317 8.49935 7.33317C7.57935 7.33317 6.83268 6.58651 6.83268 5.6665C6.83268 4.7465 7.57935 3.99984 8.49935 3.99984C9.41935 3.99984 10.166 4.7465 10.166 5.6665Z" fill="#242425"/>
</svg>
