<svg width="114" height="32" viewBox="0 0 114 32" fill="none" xmlns="http://www.w3.org/2000/svg">
<path fill-rule="evenodd" clip-rule="evenodd" d="M105.842 24.1243V12.677C105.842 12.3719 106.006 12.1964 106.322 12.1964H109.005C109.31 12.1964 109.485 12.3719 109.485 12.677V13.7548C109.485 14.1881 109.72 14.2819 110.012 13.9303C110.829 12.9737 111.958 12.3384 113.199 12.1377C113.539 12.079 113.726 12.2666 113.726 12.5832V15.2424C113.726 15.5238 113.562 15.7229 113.246 15.7229C110.903 15.8403 109.673 16.8014 109.673 18.9693V24.1243C109.673 24.4415 109.509 24.6049 109.193 24.6049H106.322C106.006 24.6049 105.842 24.4408 105.842 24.1243ZM99.6475 16.8014C99.987 16.8014 100.174 16.6138 100.057 16.2736C99.682 15.243 98.7447 14.6451 97.5267 14.6451C96.308 14.6451 95.3471 15.2309 94.8909 16.2507C94.7499 16.5902 94.9611 16.8014 95.3005 16.8014H99.6469H99.6475ZM90.8597 18.4057C90.8597 14.7969 93.5778 11.9379 97.4909 11.9379C101.052 11.9379 103.805 14.3636 103.841 18.2302L103.829 18.5697C103.805 18.8512 103.63 19.0266 103.337 19.0266H95.1487C94.8437 19.0266 94.621 19.2143 94.7148 19.5537C95.0077 21.0305 96.1912 21.8505 97.6205 21.8505C98.6394 21.8505 99.5652 21.4523 100.162 20.6437C100.35 20.3981 100.549 20.3043 100.807 20.4332L102.951 21.3355C103.244 21.4523 103.349 21.6635 103.221 21.8977C102.201 23.7133 100.21 24.8384 97.6198 24.8384C93.5197 24.8384 90.8604 22.0037 90.8604 18.4064L90.8597 18.4057ZM70.1617 24.1236V12.677C70.1617 12.3719 70.3257 12.1964 70.6422 12.1964H73.5121C73.8285 12.1964 73.9925 12.3719 73.9925 12.677V13.1339C73.9925 13.5672 74.2267 13.6374 74.531 13.3215C75.3279 12.4779 76.3705 11.9622 77.6243 11.9622C79.0886 11.9622 80.2249 12.4421 80.9038 13.497C81.0799 13.7899 81.2682 13.8136 81.4902 13.5443C82.3451 12.5596 83.5173 11.9622 84.9458 11.9622C87.4419 11.9622 89.0823 13.3796 89.0823 16.0631V24.1243C89.0823 24.4415 88.9062 24.6049 88.6012 24.6049H85.7313C85.4148 24.6049 85.2508 24.4408 85.2508 24.1243V17.012C85.2508 15.7816 84.5355 15.0439 83.4464 15.0439C82.1933 15.0439 81.5489 15.9807 81.5489 17.2347V24.1243C81.5489 24.4415 81.3734 24.6049 81.0684 24.6049H78.1756C77.8591 24.6049 77.6951 24.4408 77.6951 24.1243V17.012C77.6951 15.7816 77.0041 15.0439 75.9029 15.0439C74.6491 15.0439 73.9932 15.9807 73.9932 17.2347V24.1243C73.9932 24.4415 73.8292 24.6049 73.5127 24.6049H70.6428C70.3257 24.6049 70.1624 24.4408 70.1624 24.1243L70.1617 24.1236ZM64.5056 18.3942C64.5056 16.4842 63.0527 15.16 61.2598 15.16C59.4561 15.16 58.0269 16.437 58.0269 18.3942C58.0269 20.3623 59.4561 21.6163 61.2605 21.6163C63.0527 21.6163 64.5056 20.3272 64.5056 18.3942ZM54.3951 18.3942C54.3951 14.6093 57.3359 11.9616 61.272 11.9616C65.1966 11.9616 68.1603 14.6093 68.1603 18.3942C68.1603 22.1907 65.1966 24.8384 61.272 24.8384C57.3359 24.8384 54.3958 22.1907 54.3958 18.3942H54.3951ZM43.5269 23.5155C43.2691 23.363 43.2219 23.1403 43.3744 22.8588L44.4055 21.0311C44.5458 20.7497 44.7914 20.7031 45.0492 20.9029C46.0925 21.5468 47.4393 22.0503 48.4232 22.0503C49.2087 22.0503 49.7357 21.7344 49.7357 21.125C49.7357 20.2928 48.6223 20.0471 47.3105 19.5902C45.6936 19.0395 43.7259 18.3362 43.7259 15.8403C43.7259 13.1805 45.9393 11.9622 48.494 11.9622C49.8996 11.9622 51.3754 12.3132 52.6407 13.0165C52.9221 13.169 52.9693 13.3917 52.7932 13.6725L51.7628 15.2896C51.5981 15.5474 51.3761 15.5947 51.1183 15.4421C50.2748 15.0082 49.1965 14.6572 48.4468 14.6572C47.7558 14.6572 47.2875 14.938 47.2875 15.4421C47.2875 16.192 48.4704 16.4032 49.8531 16.848C51.5165 17.4109 53.4025 18.1843 53.4025 20.7855C53.4025 23.527 51.2823 24.839 48.4819 24.839C46.7369 24.839 44.9089 24.3241 43.5269 23.5155ZM37.4605 24.1243V12.677C37.4605 12.3719 37.6245 12.1964 37.9409 12.1964H40.7879C41.1037 12.1964 41.2677 12.3719 41.2677 12.677V24.1243C41.2677 24.4415 41.1037 24.6049 40.7879 24.6049H37.9403C37.6245 24.6049 37.4605 24.4408 37.4605 24.1243ZM37.2493 8.48168C37.2493 7.31002 38.2102 6.37256 39.3931 6.37256C39.954 6.37256 40.4919 6.59541 40.8885 6.99209C41.2851 7.38876 41.5079 7.92677 41.5079 8.48776C41.5079 9.04874 41.2851 9.58675 40.8885 9.98343C40.4919 10.3801 39.954 10.603 39.3931 10.603C38.2102 10.603 37.2499 9.66482 37.2499 8.48168H37.2493Z" fill="#E6E6E7"/>
<path d="M26.7061 25.6473C26.7061 25.6473 24.3863 27.2805 21.5448 28.9804C18.7035 30.6803 16.3836 31.8233 16.3836 31.8233C15.6992 32.2329 15.1442 31.9058 15.1442 31.0935C15.1442 31.0935 14.9377 28.2153 14.9377 25.0905C14.9377 21.9654 15.1442 18.8402 15.1442 18.8402C15.1442 18.0278 15.6992 17.0368 16.3836 16.6272C16.3836 16.6272 18.6049 15.0533 21.545 13.2944C24.4848 11.5354 26.7061 10.4514 26.7061 10.4514C27.3905 10.042 27.8783 10.4307 27.9454 11.1812C28.0127 11.9317 28.1519 13.2014 28.1519 17.1843C28.1519 21.1672 27.9454 23.4344 27.9454 23.4344C27.9454 24.2471 27.3905 25.2378 26.7061 25.6473Z" fill="#E6E6E7"/>
<path d="M16.3397 26.7932C16.1119 26.9263 16.0211 26.8453 16.1379 26.6131L19.643 19.6451C19.7598 19.4128 20.0218 19.359 20.2249 19.5254L23.4155 22.1353C23.6187 22.3013 23.5987 22.5467 23.3713 22.6796L16.3397 26.7932Z" fill="#9C9C9C"/>
<path d="M22.4065 21.3403L23.6097 19.0688C23.7301 18.8414 24.0001 18.7886 24.2095 18.9516L26.2834 20.5628C26.493 20.7254 26.4726 20.9654 26.2378 21.0957L23.0679 22.8569" fill="#9C9C9C"/>
<path d="M22.9811 17.4574C22.9811 17.7392 22.724 18.0828 22.4066 18.2247C22.0893 18.3667 21.832 18.2533 21.832 17.9717C21.832 17.69 22.0893 17.3464 22.4067 17.2043C22.7242 17.0624 22.9811 17.1756 22.9811 17.4573" fill="#9C9C9C"/>
<path d="M0.209388 23.4258C0.209388 23.4258 0.0029788 21.1561 0.0029788 17.1692C-0.0251384 13.4908 0.153641 11.8542 0.209388 11.16C0.264972 10.4659 0.732075 10.0499 1.44849 10.4294C1.44849 10.4294 3.66927 11.5147 6.60873 13.2754C9.54787 15.0362 11.7686 16.6117 11.7686 16.6117C12.453 17.0217 13.0077 18.0135 13.0077 18.8269C13.0077 18.8269 13.2142 21.9553 13.2142 25.0834C13.2142 28.2116 13.0077 31.0927 13.0077 31.0927C13.0077 31.906 12.453 32.233 11.7686 31.8231C11.7686 31.8231 9.44938 30.6791 6.60857 28.9774C3.76792 27.2758 1.44849 25.641 1.44849 25.641C0.764256 25.2309 0.209388 24.2392 0.209388 23.4258Z" fill="#E6E6E7"/>
<path fill-rule="evenodd" clip-rule="evenodd" d="M2.00474 23.5109L5.47929 25.6656L5.47945 25.6655C5.63455 25.7663 5.76056 25.7066 5.76056 25.5322V15.8447C5.76056 15.6702 5.63455 15.4473 5.47929 15.3467L2.00474 13.192C1.84932 13.0913 1.72363 13.151 1.72363 13.3255V23.013C1.72363 23.1874 1.84932 23.4103 2.00474 23.5109ZM6.8971 20.9218L10.6355 23.3446C10.7902 23.445 10.9161 23.3854 10.9161 23.2114V19.2824C10.9161 19.1084 10.7904 18.8858 10.6353 18.7853L6.89693 16.3625C6.74184 16.262 6.61631 16.3217 6.61631 16.4956V20.4247C6.61631 20.5989 6.742 20.8215 6.8971 20.9218Z" fill="#9C9C9C"/>
<path d="M10.6157 29.0956L6.62031 26.7491C6.45418 26.6518 6.31982 26.4361 6.31982 26.2672V22.4622C6.31982 22.2933 6.45418 22.2355 6.62031 22.3331L10.6157 24.6794C10.7815 24.7769 10.9161 24.9926 10.9161 25.1614V28.9664C10.9161 29.1351 10.7814 29.1929 10.6156 29.0954" fill="#9C9C9C"/>
<path d="M25.9231 8.19207C25.9231 8.19207 23.7165 9.74548 20.7479 11.4931C17.7796 13.2406 15.1388 14.5408 15.1388 14.5408C14.4238 14.9617 13.2607 14.9627 12.5411 14.5429C12.5411 14.5429 9.6676 13.119 6.90048 11.5045C4.13336 9.89004 1.6911 8.21216 1.6911 8.21216C0.971543 7.79236 0.968132 7.11072 1.6833 6.68978C1.6833 6.68978 3.78674 5.19681 6.85825 3.38858C9.92976 1.58035 12.4675 0.341215 12.4675 0.341215C13.1827 -0.0798891 14.1223 -0.145554 15.0652 0.338928C16.0081 0.823409 17.1792 1.31965 20.7059 3.37715C24.2325 5.43513 25.2733 6.2187 25.9153 6.66986C26.5568 7.12069 26.6381 7.77129 25.9231 8.19223" fill="#E6E6E7"/>
<path d="M9.48651 6.27815C9.03505 6.01675 9.11195 5.75883 9.65772 5.70522L15.3297 5.14801C15.8752 5.09441 16.1996 5.48254 16.0504 6.01096L15.3341 8.54752C15.1848 9.07561 14.6934 9.294 14.2419 9.03243L9.48651 6.27815Z" fill="#9C9C9C"/>
<path d="M23.5556 7.24847L13.8641 13.1426L13.2141 12.7509L22.9055 6.85693L23.5556 7.24847Z" fill="#9C9C9C"/>
<path d="M16.3223 11.0238C16.7725 11.2465 16.7747 11.6085 16.3272 11.8319C15.88 12.0554 15.1525 12.0558 14.7024 11.8329C14.2522 11.6101 14.2499 11.2483 14.6975 11.0249C15.1447 10.8014 15.8721 10.8008 16.3223 11.0238Z" fill="#9C9C9C"/>
</svg>
