<svg width="15" height="18" viewBox="0 0 15 18" fill="none" xmlns="http://www.w3.org/2000/svg">
    <path d="M14.1663 9.00008C14.1663 8.08091 13.4188 7.33342 12.4997 7.33342H11.6663V4.83342C11.6663 2.53591 9.79717 0.666748 7.49967 0.666748C5.20217 0.666748 3.33301 2.53591 3.33301 4.83342V7.33342H2.49967C1.58051 7.33342 0.833008 8.08091 0.833008 9.00008V15.6667C0.833008 16.5859 1.58051 17.3334 2.49967 17.3334H12.4997C13.4188 17.3334 14.1663 16.5859 14.1663 15.6667V9.00008ZM4.99967 4.83342C4.99967 3.45508 6.12134 2.33341 7.49967 2.33341C8.87801 2.33341 9.99967 3.45508 9.99967 4.83342V7.33342H4.99967V4.83342Z" fill="#242425"/>
</svg>
