<svg xmlns="http://www.w3.org/2000/svg" xmlns:xlink="http://www.w3.org/1999/xlink" viewBox="0 0 250 28.56"><defs><style>.cls-1{fill:#0d316f;}.cls-2{fill:url(#linear-gradient);}</style><linearGradient id="linear-gradient" y1="28.08" x2="250" y2="28.08" gradientUnits="userSpaceOnUse"><stop offset="0" stop-color="#08ada6" stop-opacity="0"/><stop offset="0.01" stop-color="#08ada6" stop-opacity="0.06"/><stop offset="0.04" stop-color="#08ada6" stop-opacity="0.28"/><stop offset="0.07" stop-color="#08ada6" stop-opacity="0.47"/><stop offset="0.11" stop-color="#08ada6" stop-opacity="0.64"/><stop offset="0.15" stop-color="#08ada6" stop-opacity="0.77"/><stop offset="0.19" stop-color="#08ada6" stop-opacity="0.87"/><stop offset="0.25" stop-color="#08ada6" stop-opacity="0.95"/><stop offset="0.32" stop-color="#08ada6" stop-opacity="0.99"/><stop offset="0.5" stop-color="#08ada6"/><stop offset="0.68" stop-color="#08ada6" stop-opacity="0.99"/><stop offset="0.75" stop-color="#08ada6" stop-opacity="0.95"/><stop offset="0.81" stop-color="#08ada6" stop-opacity="0.87"/><stop offset="0.85" stop-color="#08ada6" stop-opacity="0.77"/><stop offset="0.89" stop-color="#08ada6" stop-opacity="0.64"/><stop offset="0.93" stop-color="#08ada6" stop-opacity="0.47"/><stop offset="0.96" stop-color="#08ada6" stop-opacity="0.28"/><stop offset="0.99" stop-color="#08ada6" stop-opacity="0.06"/><stop offset="1" stop-color="#08ada6" stop-opacity="0"/></linearGradient></defs><title>HLB_logo</title><g id="Layer_2" data-name="Layer 2"><g id="Layer_1-2" data-name="Layer 1"><path class="cls-1" d="M14.8,0h2.52V20.49H14.8V10.62h-7v9.87H5.24V0H7.76V8.38h7ZM30.9,12.8c0,4.34-1.12,8.1-5.54,8.1s-5.54-3.76-5.54-8.1,1.12-8.09,5.54-8.09S30.9,8.47,30.9,12.8Zm-2.53,0c0-3.33-.49-6.2-3.07-6.2s-3,2.87-3,6.2.49,6.2,3,6.2S28.37,16.13,28.37,12.8ZM36.43.63H34V5.11H31.78V7H34V17.62c0,2,.61,3.05,3.1,3.05a9.61,9.61,0,0,0,2-.18v-2A6.91,6.91,0,0,1,38,18.6c-1.26,0-1.58-.49-1.58-1.72V7H39.1V5.11H36.43ZM50.84,12.11v1H42.75c0,2.35,0,5.91,3,5.91,2.3,0,2.62-2.41,2.62-3.56h2.41c0,1.64-1,5.46-5.17,5.46-3.76,0-5.34-2.62-5.34-7.9,0-3.84.75-8.29,5.48-8.29S50.84,8.81,50.84,12.11Zm-2.52-1.75c0-1.72-.55-3.76-2.67-3.76-2.53,0-2.82,3.1-2.82,4v.57h5.49Zm5.3,10.13H56V0H53.62ZM65,11.74c-1.89-.63-3.79-1-3.79-2.78a2.22,2.22,0,0,1,2.5-2.36c1.75,0,2.27,1.06,2.27,3h2.41c0-1.81-.2-4.91-4.68-4.91C61,4.71,58.76,6.08,58.76,9c0,3.18,1.92,3.73,3.79,4.36s3.76,1.06,3.76,3.13A2.41,2.41,0,0,1,63.76,19c-2.36,0-2.87-1.69-2.87-3.56H58.47c0,1.58.06,5.46,5.29,5.46,2.87,0,5-1.58,5-4.83C68.72,13,66.83,12.37,65,11.74ZM80.52,0H78V20.49H88.84V18.25H80.52ZM90.79,20.49H93.2V5.11H90.79Zm0-17.73H93.2V0H90.79ZM101.38,6.6c1.84,0,2.44,1.69,2.44,3.19h2.41c0-1.78-.72-5.08-4.91-5.08-4.73,0-5.48,4.45-5.48,8.29,0,5.28,1.58,7.9,5.34,7.9s5-3.31,5-5.75h-2.41c0,1.67-.46,3.85-2.53,3.85-2.9,0-2.92-4-2.92-6C98.37,7.35,99.89,6.6,101.38,6.6Zm17.45,5.51v1h-8.09c0,2.35,0,5.91,3,5.91,2.3,0,2.61-2.41,2.61-3.56h2.41c0,1.64-1,5.46-5.16,5.46-3.76,0-5.34-2.62-5.34-7.9,0-3.84.75-8.29,5.48-8.29S118.83,8.81,118.83,12.11Zm-2.53-1.75c0-1.72-.54-3.76-2.67-3.76-2.52,0-2.81,3.1-2.81,4v.57h5.48Zm11.25-5.65a4.1,4.1,0,0,0-3.73,2.21h-.06V5.11h-2.29V20.49h2.41V9.87a3,3,0,0,1,3-3.1c2.18,0,2.27,1.93,2.27,3.1V20.49h2.41V9.59C131.6,7.78,131.6,4.71,127.55,4.71Zm12.83,7c-1.89-.63-3.79-1-3.79-2.78a2.22,2.22,0,0,1,2.5-2.36c1.75,0,2.27,1.06,2.27,3h2.41c0-1.81-.2-4.91-4.68-4.91-2.67,0-4.91,1.37-4.91,4.25,0,3.18,1.93,3.73,3.79,4.36s3.76,1.06,3.76,3.13A2.41,2.41,0,0,1,139.18,19c-2.36,0-2.87-1.69-2.87-3.56H133.9c0,1.58,0,5.46,5.28,5.46,2.87,0,5-1.58,5-4.83C144.14,13,142.25,12.37,140.38,11.74Zm6.2-9H149V0h-2.41Zm0,17.73H149V5.11h-2.41Zm11.8-15.78a4.09,4.09,0,0,0-3.73,2.21h-.06V5.11h-2.3V20.49h2.41V9.87a3,3,0,0,1,3.05-3.1c2.18,0,2.26,1.93,2.26,3.1V20.49h2.41V9.59C162.42,7.78,162.42,4.71,158.38,4.71Zm15,.4h2.29V19.52c0,4.59-2.12,6.25-5.22,6.25-1,0-4.65,0-5.05-3.84h2.41c.11,1.4,1.2,1.95,2.47,1.95,3.1,0,3-2.38,3-3.44v-2h-.06a3.64,3.64,0,0,1-3.47,2.06c-4.48,0-4.76-5.65-4.76-7.69,0-4.16,1.12-8.09,5-8.09a3.47,3.47,0,0,1,3.33,2.35h.06Zm0,7.69c0-3-.52-6-3.11-6-2.23,0-2.81,2.36-2.81,6,0,2.5.38,5.63,2.79,5.63C172.93,18.43,173.45,16,173.45,12.8ZM198,14.64c0,4.16-2.35,5.85-6.63,5.85h-5.57V0h6.29c2.67,0,5.25,1.26,5.25,5.25a4.4,4.4,0,0,1-3,4.28v.06C196.92,10.19,198,12.11,198,14.64Zm-9.67-5.8h2.9a3.12,3.12,0,0,0,3.47-3.42c0-2.12-1.06-3.35-3.53-3.35h-2.84Zm7,5.8c0-2.81-1.81-3.91-4-3.91h-3v7.7h3.44C194.48,18.43,195.4,16.62,195.4,14.64ZM211,12.8c0,4.34-1.12,8.1-5.53,8.1s-5.54-3.76-5.54-8.1,1.12-8.09,5.54-8.09S211,8.47,211,12.8Zm-2.52,0c0-3.33-.49-6.2-3.07-6.2s-3,2.87-3,6.2.49,6.2,3,6.2S208.46,16.13,208.46,12.8Zm15.15,6.14a.87.87,0,0,0,.58-.14v1.72a8.61,8.61,0,0,1-1.41.15c-.92,0-2.07,0-2.18-2h-.06a4.37,4.37,0,0,1-3.7,2.21c-2.87,0-4.19-1.73-4.19-4.48,0-2.16.92-3.65,2.9-4.25l3.24-1c1.75-.54,1.75-1,1.75-2.32s-.86-2.27-2.47-2.27c-2.64,0-2.64,2.47-2.64,3v.14H213c0-3.5,1.49-5,5.17-5,4.67,0,4.67,2.81,4.67,4.42v8.58C222.86,18.34,222.86,18.94,223.61,18.94Zm-3.16-6.83c-.89,1-3,1.15-4.1,1.81a2.45,2.45,0,0,0-1.18,2.44c0,1.55.55,2.64,2.18,2.64a3.13,3.13,0,0,0,3.1-2.93Zm8.15-4.7h0V5.11h-2.41V20.49h2.41V10.76a3.41,3.41,0,0,1,3.15-3.64,6.73,6.73,0,0,1,1.3.11V4.88a2.42,2.42,0,0,0-1.07-.17C230.21,4.71,229.29,5.94,228.6,7.41ZM244.76,0V20.49h-2.29V18.6h-.06a3.5,3.5,0,0,1-3.33,2.3c-3.65,0-5-3.25-5-8.1,0-3.21.51-8.09,4.85-8.09a3.72,3.72,0,0,1,3.38,2.15h.06V0ZM242.5,12.8c0-3-.52-6-3.1-6-2.24,0-2.82,2.36-2.82,6s.58,6,2.82,6C242.07,18.83,242.5,16.3,242.5,12.8Z"/><rect class="cls-2" y="27.61" width="250" height="0.94"/></g></g></svg>