<svg width="125" height="32" viewBox="0 0 125 32" fill="none" xmlns="http://www.w3.org/2000/svg">
<path fill-rule="evenodd" clip-rule="evenodd" d="M54.1635 4.37917C54.1635 3.11053 53.209 2.13174 51.9725 2.13174C50.7399 2.13174 49.7816 3.11053 49.7816 4.37917C49.7816 5.6478 50.7399 6.62627 51.9725 6.62627C53.2093 6.62627 54.1635 5.6478 54.1635 4.37917ZM48.5022 4.37917C48.5022 2.40797 49.9994 0.920166 51.9725 0.920166C53.9448 0.920166 55.4429 2.40829 55.4429 4.37917C55.4429 6.35037 53.9448 7.83784 51.9725 7.83784C49.9994 7.83784 48.5022 6.35037 48.5022 4.37917ZM61.3257 3.15884C61.3257 2.54025 60.9404 2.10969 60.2043 2.10969H59.0747C59.018 2.10969 58.9636 2.13282 58.9234 2.17398C58.8833 2.21514 58.8608 2.27097 58.8608 2.32918V3.97585C58.8608 4.09678 58.9568 4.19469 59.0747 4.19469H60.2043C60.9408 4.19469 61.3257 3.80434 61.3257 3.15884ZM62.5625 3.17181C62.5625 4.3837 61.7148 5.3009 60.3971 5.3009H59.0747C59.018 5.3009 58.9636 5.32402 58.9234 5.36518C58.8833 5.40635 58.8608 5.46217 58.8608 5.52039V7.53114C58.8608 7.5599 58.8553 7.5884 58.8446 7.61499C58.8339 7.64157 58.8182 7.66574 58.7984 7.68609C58.7786 7.70645 58.755 7.7226 58.7291 7.73362C58.7032 7.74463 58.6755 7.75031 58.6474 7.75031H57.7994C57.7713 7.75035 57.7435 7.74471 57.7176 7.73372C57.6916 7.72272 57.668 7.70658 57.6481 7.68623C57.6283 7.66587 57.6125 7.6417 57.6018 7.61509C57.591 7.58847 57.5855 7.55995 57.5855 7.53114V1.22719C57.5855 1.10626 57.6812 1.00803 57.7994 1.00803H60.3971C61.7151 1.00803 62.5621 1.97806 62.5621 3.17213L62.5625 3.17181ZM65.9035 2.39078V3.58907C65.9035 3.71 65.9987 3.80856 66.1172 3.80856H68.0215C68.1397 3.80856 68.2354 3.90647 68.2354 4.02805V4.73936C68.2354 4.79758 68.2129 4.8534 68.1728 4.89457C68.1326 4.93573 68.0782 4.95885 68.0215 4.95885H66.1172C66.0891 4.95881 66.0613 4.96444 66.0354 4.97541C66.0095 4.98639 65.9859 5.0025 65.966 5.02282C65.9462 5.04314 65.9304 5.06728 65.9196 5.09385C65.9088 5.12042 65.9033 5.14892 65.9032 5.1777V6.36755C65.9032 6.4888 65.9987 6.58704 66.1172 6.58704H68.3385C68.4564 6.58704 68.5521 6.68527 68.5521 6.80588V7.53081C68.5521 7.58897 68.5296 7.64475 68.4896 7.6859C68.4495 7.72706 68.3952 7.75022 68.3385 7.75031H64.8416C64.8135 7.75031 64.7857 7.74463 64.7597 7.73359C64.7338 7.72256 64.7102 7.70638 64.6904 7.686C64.6705 7.66561 64.6548 7.64141 64.6441 7.61479C64.6334 7.58816 64.6279 7.55962 64.6279 7.53081V1.22719C64.6279 1.10626 64.7237 1.00835 64.8416 1.00835H68.3381C68.456 1.00835 68.5518 1.10626 68.5518 1.22719V1.9518C68.5518 2.00996 68.5293 2.06574 68.4892 2.10689C68.4492 2.14805 68.3948 2.17121 68.3381 2.17129H66.1169C66.0601 2.17129 66.0057 2.19442 65.9656 2.23558C65.9254 2.27674 65.9029 2.33257 65.9029 2.39078H65.9035ZM77.0624 1.22719V7.53081C77.0624 7.58903 77.0398 7.64486 76.9997 7.68602C76.9596 7.72718 76.9051 7.75031 76.8484 7.75031H75.9584C75.9261 7.75034 75.8943 7.7429 75.8653 7.72852C75.8363 7.71415 75.8109 7.69322 75.7908 7.66731L72.488 3.41237C72.3616 3.25027 72.1072 3.34137 72.1072 3.54919V7.53081C72.1072 7.58903 72.0846 7.64486 72.0445 7.68602C72.0044 7.72718 71.9499 7.75031 71.8932 7.75031H71.0629C71.0062 7.75022 70.9519 7.72706 70.9118 7.6859C70.8717 7.64475 70.8492 7.58897 70.8492 7.53081V1.22719C70.8492 1.10626 70.9447 1.00803 71.0629 1.00803H71.9444C72.0095 1.00803 72.0708 1.0385 72.1113 1.09038L75.4151 5.33008C75.5412 5.49218 75.7959 5.40075 75.7959 5.19391V1.22687C75.7959 1.10594 75.891 1.0077 76.0092 1.0077H76.8484C76.9663 1.0077 77.0624 1.10594 77.0624 1.22687V1.22719ZM55.4426 15.9911C55.4426 17.9707 53.9495 19.4585 51.9725 19.4585C49.9994 19.4585 48.5022 17.9704 48.5022 15.9998C48.5022 14.0286 49.9994 12.5412 51.9725 12.5412C53.1072 12.5412 54.0857 13.0359 54.7077 13.8267C54.7277 13.8517 54.742 13.8809 54.7497 13.9122C54.7575 13.9435 54.7584 13.9762 54.7525 14.008C54.7466 14.0397 54.734 14.0697 54.7155 14.0959C54.6971 14.1221 54.6733 14.1439 54.6458 14.1596L53.9125 14.5749C53.8704 14.5996 53.8212 14.6087 53.7733 14.6007C53.7254 14.5928 53.6816 14.5682 53.6492 14.5312C53.251 14.0546 52.6546 13.7524 51.9678 13.7524C50.7399 13.7524 49.7816 14.7137 49.7816 16.0303C49.7816 17.2643 50.6331 18.2473 51.9896 18.2473C52.9545 18.2473 53.6717 17.7519 53.9858 16.9663C54.0424 16.8237 53.9353 16.6671 53.7851 16.6671H52.5841C52.556 16.6671 52.5282 16.6614 52.5023 16.6503C52.4763 16.6393 52.4528 16.6231 52.4329 16.6028C52.4131 16.5824 52.3974 16.5582 52.3866 16.5315C52.3759 16.5049 52.3704 16.4764 52.3705 16.4476V15.8066C52.3705 15.6854 52.4662 15.5871 52.5841 15.5871H55.2216C55.3351 15.5871 55.4271 15.6769 55.4353 15.7927C55.44 15.8562 55.4426 15.9224 55.4426 15.9911ZM62.7164 15.9998C62.7164 14.7312 61.7619 13.7527 60.5254 13.7527C59.2931 13.7527 58.3345 14.7312 58.3345 15.9998C58.3345 17.2685 59.2931 18.2469 60.5254 18.2469C61.7619 18.2469 62.7164 17.2685 62.7164 15.9998ZM57.0551 15.9998C57.0551 14.0286 58.5526 12.5408 60.5254 12.5408C62.4977 12.5408 63.9958 14.029 63.9958 15.9998C63.9958 17.971 62.4977 19.4588 60.5254 19.4588C58.5526 19.4588 57.0551 17.9707 57.0551 15.9998ZM71.2965 12.9257L68.9681 19.2293C68.9527 19.2709 68.9255 19.3067 68.8898 19.332C68.8542 19.3573 68.8119 19.3709 68.7686 19.371H67.7455C67.7022 19.371 67.6598 19.3574 67.6241 19.3321C67.5884 19.3068 67.5611 19.2709 67.5458 19.2293L65.2212 12.9257C65.2089 12.8925 65.2048 12.8567 65.209 12.8215C65.2132 12.7863 65.2257 12.7526 65.2453 12.7234C65.265 12.6942 65.2913 12.6703 65.3219 12.6538C65.3525 12.6373 65.3866 12.6287 65.4212 12.6287H66.3094C66.3994 12.6287 66.48 12.6871 66.5104 12.7743L68.0559 17.2169C68.1235 17.4114 68.3909 17.4114 68.4582 17.2172L70.0076 12.7743C70.0224 12.7317 70.0497 12.6948 70.0857 12.6687C70.1218 12.6427 70.1648 12.6287 70.2089 12.6287H71.0967C71.2462 12.6287 71.3499 12.7821 71.2965 12.9257ZM74.6021 14.0111V15.2101C74.6021 15.331 74.6979 15.4292 74.8158 15.4292H76.7204C76.8383 15.4292 76.9344 15.5271 76.9344 15.6484V16.36C76.9343 16.4182 76.9117 16.4739 76.8716 16.515C76.8315 16.5561 76.7771 16.5792 76.7204 16.5792H74.8158C74.7591 16.5793 74.7048 16.6025 74.6647 16.6436C74.6246 16.6848 74.6021 16.7405 74.6021 16.7987V17.9885C74.6021 18.1095 74.6979 18.2074 74.8158 18.2074H77.0371C77.1553 18.2074 77.2507 18.3059 77.2507 18.4269V19.1515C77.2508 19.1803 77.2453 19.2088 77.2346 19.2355C77.2238 19.2621 77.2081 19.2863 77.1883 19.3067C77.1684 19.3271 77.1449 19.3432 77.1189 19.3543C77.093 19.3653 77.0652 19.371 77.0371 19.371H73.5402C73.5121 19.3709 73.4844 19.3652 73.4584 19.3542C73.4325 19.3431 73.409 19.3269 73.3892 19.3066C73.3694 19.2862 73.3537 19.262 73.343 19.2354C73.3323 19.2088 73.3268 19.1803 73.3268 19.1515V12.8482C73.3268 12.7269 73.4223 12.6287 73.5402 12.6287H77.0371C77.1553 12.6287 77.2507 12.7269 77.2507 12.8482V13.5728C77.2508 13.6016 77.2453 13.6301 77.2346 13.6567C77.2238 13.6833 77.2081 13.7075 77.1882 13.7279C77.1684 13.7482 77.1448 13.7644 77.1189 13.7754C77.0929 13.7864 77.0651 13.792 77.0371 13.792H74.8158C74.7592 13.7921 74.7049 13.8152 74.6648 13.8563C74.6248 13.8973 74.6022 13.953 74.6021 14.0111ZM80.8228 15.2538C80.8228 15.3748 80.9186 15.4733 81.0368 15.4733H82.0299C82.6418 15.4733 82.9714 15.1524 82.9714 14.6129C82.9714 14.0818 82.6418 13.7349 82.0296 13.7349H81.0368C80.9801 13.7349 80.9256 13.758 80.8855 13.7992C80.8454 13.8404 80.8228 13.8962 80.8228 13.9544V15.2538ZM81.7663 16.5218H81.0365C80.9798 16.5218 80.9253 16.5449 80.8852 16.5861C80.8451 16.6273 80.8225 16.6831 80.8225 16.7413V19.1515C80.8226 19.1803 80.8171 19.2088 80.8064 19.2355C80.7956 19.2621 80.7799 19.2863 80.7601 19.3067C80.7402 19.3271 80.7166 19.3432 80.6907 19.3543C80.6648 19.3653 80.637 19.371 80.6089 19.371H79.7612C79.7331 19.371 79.7053 19.3653 79.6794 19.3543C79.6534 19.3432 79.6299 19.3271 79.61 19.3067C79.5902 19.2863 79.5744 19.2621 79.5637 19.2355C79.553 19.2088 79.5475 19.1803 79.5475 19.1515V12.8482C79.5475 12.7269 79.6433 12.6287 79.7612 12.6287H82.1149C83.467 12.6287 84.2072 13.5242 84.2072 14.6258C84.2072 15.3634 83.8381 15.9551 83.2698 16.2722C83.2446 16.2861 83.2225 16.305 83.2047 16.3279C83.1869 16.3508 83.1738 16.3772 83.1662 16.4054C83.1586 16.4336 83.1566 16.4632 83.1604 16.4922C83.1642 16.5212 83.1737 16.5492 83.1882 16.5743L84.6115 19.04C84.6305 19.0733 84.6407 19.1111 84.6409 19.1498C84.6412 19.1884 84.6315 19.2264 84.6128 19.2599C84.5942 19.2935 84.5672 19.3214 84.5347 19.3408C84.5021 19.3603 84.4652 19.3706 84.4275 19.3707H83.5425C83.5042 19.3708 83.4666 19.3603 83.4336 19.3403C83.4007 19.3204 83.3735 19.2916 83.3551 19.2572L81.9534 16.6359C81.935 16.6014 81.9079 16.5726 81.8749 16.5526C81.8419 16.5325 81.8043 16.5219 81.766 16.5218H81.7663ZM92.9362 12.8482V19.1518C92.9361 19.2099 92.9135 19.2656 92.8735 19.3067C92.8334 19.3478 92.7792 19.3709 92.7225 19.371H91.8325C91.8003 19.3711 91.7685 19.3637 91.7395 19.3493C91.7105 19.335 91.685 19.3142 91.665 19.2883L88.3622 15.033C88.2357 14.8709 87.9813 14.9624 87.9813 15.1699V19.1518C87.9812 19.21 87.9586 19.2657 87.9185 19.3068C87.8784 19.3479 87.824 19.371 87.7673 19.371H86.9367C86.8801 19.3709 86.8258 19.3478 86.7858 19.3067C86.7458 19.2656 86.7234 19.2099 86.7234 19.1518V12.8482C86.7234 12.7269 86.8188 12.6287 86.9367 12.6287H87.8185C87.8833 12.6287 87.9449 12.6592 87.9854 12.7114L91.2892 16.9507C91.415 17.1129 91.67 17.0214 91.67 16.8139V12.8485C91.67 12.7273 91.7649 12.629 91.8834 12.629H92.7225C92.8404 12.629 92.9365 12.7273 92.9365 12.8485L92.9362 12.8482ZM102.713 12.8482V19.1518C102.713 19.2099 102.69 19.2657 102.65 19.3068C102.61 19.3479 102.556 19.371 102.499 19.371H101.652C101.595 19.371 101.54 19.3479 101.5 19.3068C101.46 19.2657 101.438 19.21 101.438 19.1518V15.4954C101.438 15.2551 101.115 15.19 101.026 15.4124L99.5023 19.2348C99.4862 19.275 99.4588 19.3094 99.4237 19.3336C99.3885 19.3578 99.3471 19.3708 99.3048 19.371H98.9287C98.8861 19.3709 98.8446 19.3579 98.8093 19.3335C98.774 19.3092 98.7466 19.2746 98.7305 19.2342L97.215 15.4104C97.1268 15.1877 96.8035 15.2522 96.8035 15.4931V19.1518C96.8034 19.21 96.7808 19.2657 96.7407 19.3068C96.7006 19.3479 96.6462 19.371 96.5895 19.371H95.7422C95.6855 19.371 95.6311 19.3479 95.591 19.3068C95.5508 19.2657 95.5283 19.21 95.5282 19.1518V12.8482C95.5282 12.7269 95.6243 12.6287 95.7422 12.6287H97.1145C97.2008 12.6287 97.2788 12.6822 97.3117 12.7642L98.9173 16.7533C98.9334 16.7935 98.9607 16.8278 98.9958 16.852C99.031 16.8763 99.0723 16.8892 99.1146 16.8893C99.1569 16.8894 99.1983 16.8765 99.2335 16.8524C99.2688 16.8283 99.2962 16.7941 99.3124 16.754L100.934 12.7636C100.95 12.7237 100.977 12.6896 101.013 12.6656C101.048 12.6416 101.089 12.6287 101.131 12.6287H102.5C102.617 12.6287 102.713 12.7269 102.713 12.8482ZM106.585 14.0111V15.2101C106.585 15.331 106.68 15.4292 106.799 15.4292H108.703C108.821 15.4292 108.917 15.5271 108.917 15.6484V16.36C108.917 16.4182 108.894 16.4739 108.854 16.515C108.814 16.5561 108.76 16.5792 108.703 16.5792H106.799C106.742 16.5792 106.687 16.6023 106.647 16.6435C106.607 16.6847 106.585 16.7405 106.585 16.7987V17.9885C106.585 18.1095 106.68 18.2074 106.799 18.2074H109.02C109.138 18.2074 109.233 18.3059 109.233 18.4269V19.1515C109.233 19.1803 109.228 19.2088 109.217 19.2354C109.206 19.262 109.191 19.2862 109.171 19.3066C109.151 19.3269 109.127 19.3431 109.102 19.3542C109.076 19.3652 109.048 19.3709 109.02 19.371H105.523C105.495 19.371 105.467 19.3653 105.441 19.3543C105.415 19.3432 105.392 19.3271 105.372 19.3067C105.352 19.2863 105.336 19.2621 105.325 19.2355C105.315 19.2088 105.309 19.1803 105.309 19.1515V12.8482C105.309 12.7269 105.405 12.6287 105.523 12.6287H109.02C109.138 12.6287 109.233 12.7269 109.233 12.8482V13.5728C109.233 13.6016 109.228 13.6301 109.217 13.6566C109.206 13.6832 109.191 13.7074 109.171 13.7278C109.151 13.7481 109.127 13.7643 109.102 13.7753C109.076 13.7863 109.048 13.792 109.02 13.792H106.799C106.742 13.792 106.688 13.815 106.647 13.8561C106.607 13.8972 106.585 13.953 106.585 14.0111ZM117.744 12.8482V19.1518C117.744 19.1806 117.738 19.2092 117.727 19.2358C117.717 19.2624 117.701 19.2866 117.681 19.3069C117.661 19.3273 117.637 19.3434 117.611 19.3544C117.585 19.3654 117.558 19.371 117.529 19.371H116.64C116.608 19.371 116.576 19.3636 116.547 19.3493C116.518 19.335 116.493 19.3141 116.473 19.2883L113.169 15.033C113.043 14.8709 112.789 14.9624 112.789 15.1699V19.1518C112.788 19.2099 112.766 19.2656 112.726 19.3067C112.686 19.3478 112.632 19.3709 112.575 19.371H111.744C111.687 19.3709 111.633 19.3478 111.593 19.3067C111.553 19.2656 111.53 19.2099 111.53 19.1518V12.8482C111.53 12.7269 111.626 12.6287 111.744 12.6287H112.625C112.691 12.6287 112.752 12.6592 112.792 12.7114L116.096 16.9507C116.222 17.1129 116.477 17.0214 116.477 16.8139V12.8485C116.477 12.7273 116.572 12.629 116.691 12.629H117.529C117.648 12.629 117.743 12.7273 117.743 12.8485" fill="#EEEEEE"/>
<mask id="mask0_366_214" style="mask-type:alpha" maskUnits="userSpaceOnUse" x="119" y="12" width="6" height="8">
<path d="M119.719 12.6284H124.375V19.3707H119.719V12.6284Z" fill="white"/>
</mask>
<g mask="url(#mask0_366_214)">
<path fill-rule="evenodd" clip-rule="evenodd" d="M124.161 13.7917H122.898C122.87 13.7917 122.843 13.7974 122.817 13.8084C122.791 13.8194 122.767 13.8356 122.747 13.856C122.727 13.8764 122.712 13.9006 122.701 13.9272C122.69 13.9538 122.685 13.9824 122.685 14.0112V19.1515C122.685 19.2096 122.662 19.2653 122.622 19.3064C122.582 19.3475 122.528 19.3706 122.471 19.3707H121.628C121.571 19.3706 121.517 19.3475 121.477 19.3064C121.437 19.2653 121.414 19.2096 121.414 19.1515V14.0112C121.414 13.9824 121.408 13.9538 121.398 13.9272C121.387 13.9006 121.371 13.8764 121.351 13.856C121.332 13.8356 121.308 13.8194 121.282 13.8084C121.256 13.7974 121.228 13.7917 121.2 13.7917H119.933C119.877 13.7917 119.822 13.7686 119.782 13.7276C119.742 13.6866 119.72 13.6309 119.719 13.5728V12.8479C119.719 12.7267 119.815 12.6284 119.933 12.6284H124.161C124.28 12.6284 124.375 12.7267 124.375 12.8479V13.5725C124.375 13.6307 124.353 13.6864 124.313 13.7275C124.272 13.7686 124.218 13.7917 124.161 13.7917Z" fill="#EEEEEE"/>
</g>
<path fill-rule="evenodd" clip-rule="evenodd" d="M52.6955 26.4C52.6955 25.7815 52.3105 25.3509 51.5744 25.3509H50.4448C50.3881 25.3509 50.3337 25.374 50.2935 25.4152C50.2534 25.4564 50.2309 25.5122 50.2309 25.5704V27.2171C50.2309 27.338 50.3266 27.4359 50.4448 27.4359H51.5744C52.3109 27.4359 52.6958 27.0456 52.6958 26.4H52.6955ZM53.9326 26.4137C53.9326 27.6249 53.0855 28.5421 51.7669 28.5421H50.4448C50.3881 28.5421 50.3337 28.5652 50.2935 28.6064C50.2534 28.6476 50.2309 28.7034 50.2309 28.7616V30.7723C50.2309 30.8011 50.2254 30.8297 50.2147 30.8563C50.204 30.8829 50.1882 30.9071 50.1684 30.9274C50.1485 30.9478 50.125 30.9639 50.099 30.9749C50.0731 30.9859 50.0453 30.9916 50.0172 30.9915H49.1695C49.1415 30.9916 49.1136 30.9859 49.0877 30.9749C49.0617 30.9639 49.0381 30.9478 49.0183 30.9274C48.9984 30.9071 48.9826 30.8829 48.9719 30.8563C48.9611 30.8297 48.9556 30.8012 48.9556 30.7723V24.4684C48.9556 24.3475 49.051 24.2492 49.1695 24.2492H51.7669C53.0852 24.2492 53.9326 25.2196 53.9326 26.4137ZM57.2733 26.8744C57.2733 26.9953 57.3691 27.0939 57.4873 27.0939H58.4797C59.0916 27.0939 59.4216 26.7729 59.4216 26.2331C59.4216 25.702 59.0916 25.3554 58.4797 25.3554H57.4873C57.4592 25.3554 57.4314 25.361 57.4054 25.372C57.3795 25.383 57.3559 25.3992 57.336 25.4195C57.3161 25.4399 57.3004 25.4641 57.2896 25.4907C57.2789 25.5173 57.2733 25.5458 57.2733 25.5746V26.8747V26.8744ZM58.2164 28.1427H57.4873C57.4306 28.1427 57.3762 28.1658 57.3361 28.2068C57.296 28.2479 57.2734 28.3037 57.2733 28.3618V30.772C57.2734 30.8009 57.2679 30.8294 57.2571 30.8561C57.2464 30.8827 57.2306 30.9069 57.2107 30.9273C57.1909 30.9477 57.1673 30.9639 57.1413 30.9749C57.1153 30.9859 57.0875 30.9916 57.0594 30.9915H56.2117C56.1836 30.9915 56.1558 30.9858 56.1298 30.9748C56.1039 30.9638 56.0803 30.9476 56.0605 30.9272C56.0406 30.9068 56.0249 30.8826 56.0142 30.856C56.0035 30.8294 55.998 30.8008 55.998 30.772V24.4684C55.998 24.3475 56.0935 24.2496 56.2117 24.2496H58.5654C59.9175 24.2496 60.658 25.1447 60.658 26.2464C60.658 26.9836 60.2889 27.576 59.7203 27.8924C59.6952 27.9064 59.6731 27.9254 59.6554 27.9483C59.6376 27.9712 59.6246 27.9975 59.6169 28.0257C59.6093 28.0539 59.6073 28.0834 59.6111 28.1124C59.6148 28.1414 59.6242 28.1693 59.6387 28.1946L61.0616 30.6605C61.0808 30.6938 61.091 30.7316 61.0913 30.7703C61.0917 30.8089 61.082 30.8469 61.0634 30.8805C61.0447 30.9141 61.0177 30.942 60.9852 30.9614C60.9526 30.9809 60.9157 30.9911 60.878 30.9912H59.993C59.9547 30.9912 59.9171 30.9807 59.8842 30.9608C59.8512 30.9408 59.8241 30.9121 59.8056 30.8777L58.4039 28.2565C58.3854 28.222 58.3583 28.1933 58.3253 28.1733C58.2924 28.1533 58.2548 28.1427 58.2164 28.1427ZM68.2058 27.6204C68.2058 26.3517 67.2513 25.3733 66.0149 25.3733C64.7826 25.3733 63.824 26.3517 63.824 27.6204C63.824 28.889 64.7826 29.8678 66.0149 29.8678C67.2513 29.8678 68.2058 28.889 68.2058 27.6204ZM62.5446 27.6204C62.5446 25.6492 64.0421 24.1617 66.0149 24.1617C67.9871 24.1617 69.4853 25.6492 69.4853 27.6204C69.4853 29.5916 67.9871 31.0794 66.0149 31.0794C64.0421 31.0794 62.5446 29.5912 62.5446 27.6204ZM73.8235 29.8282C75.2186 29.8282 75.8943 29.0469 75.8943 27.6204C75.8943 26.1939 75.2186 25.4128 73.8235 25.4128H73.1124C73.0557 25.4128 73.0014 25.4359 72.9613 25.477C72.9212 25.5181 72.8987 25.5739 72.8987 25.632V29.6088C72.8987 29.73 72.9945 29.8282 73.1127 29.8282H73.8235ZM71.6281 24.4684C71.6281 24.3475 71.7239 24.2496 71.8418 24.2496H73.8785C76.0615 24.2496 77.2161 25.5788 77.2161 27.6204C77.2161 29.6616 76.0615 30.9915 73.8785 30.9915H71.8418C71.8137 30.9915 71.7859 30.9858 71.76 30.9748C71.734 30.9638 71.7105 30.9476 71.6906 30.9272C71.6708 30.9068 71.655 30.8826 71.6443 30.856C71.6336 30.8294 71.6281 30.8008 71.6281 30.772V24.4684ZM79.2657 28.6562V24.4687C79.2657 24.3471 79.3612 24.2492 79.4791 24.2492H80.3271C80.445 24.2492 80.541 24.3471 80.541 24.4687V28.4542C80.541 29.5296 81.1441 29.9206 81.9361 29.9206C82.7317 29.9206 83.3347 29.5296 83.3347 28.4542V24.4687C83.3347 24.3471 83.4308 24.2492 83.5487 24.2492H84.4011C84.519 24.2492 84.6144 24.3471 84.6144 24.4687V28.6562C84.6144 30.2672 83.4589 31.0791 81.9361 31.0791C80.4213 31.0791 79.2654 30.2672 79.2654 28.6562H79.2657ZM86.6246 27.6204C86.6246 25.6492 88.1176 24.1617 90.0949 24.1617C90.983 24.1617 91.8298 24.5002 92.4391 25.0517C92.4618 25.0719 92.4802 25.0968 92.4929 25.1248C92.5057 25.1527 92.5126 25.1831 92.5132 25.2139C92.5137 25.2448 92.508 25.2754 92.4964 25.3039C92.4847 25.3323 92.4674 25.358 92.4455 25.3791L91.8582 25.9439C91.8195 25.9814 91.7684 26.0025 91.7152 26.0031C91.6619 26.0037 91.6104 25.9837 91.5709 25.9471C91.1834 25.585 90.6547 25.3733 90.0949 25.3733C88.8579 25.3733 87.904 26.3475 87.904 27.6204C87.904 28.8932 88.8579 29.8678 90.0946 29.8678C90.6547 29.8678 91.1834 29.6558 91.5709 29.2936C91.6104 29.2569 91.662 29.2369 91.7153 29.2375C91.7687 29.2381 91.8198 29.2593 91.8585 29.2969L92.4455 29.862C92.4674 29.8831 92.4847 29.9087 92.4964 29.9372C92.508 29.9656 92.5137 29.9963 92.5132 30.0271C92.5126 30.058 92.5057 30.0884 92.4929 30.1163C92.4802 30.1443 92.4618 30.1692 92.4391 30.1894C91.8298 30.7406 90.9834 31.0794 90.0946 31.0794C88.1176 31.0794 86.6246 29.5912 86.6246 27.6204ZM98.4168 25.4125H97.1541C97.126 25.4125 97.0982 25.4182 97.0723 25.4292C97.0463 25.4403 97.0228 25.4564 97.0029 25.4768C96.9831 25.4972 96.9674 25.5214 96.9566 25.548C96.9459 25.5746 96.9404 25.6032 96.9405 25.632V30.7723C96.9404 30.8304 96.9178 30.8861 96.8778 30.9271C96.8377 30.9681 96.7834 30.9912 96.7268 30.9912H95.8832C95.8552 30.9912 95.8274 30.9856 95.8015 30.9746C95.7755 30.9637 95.7519 30.9475 95.7321 30.9272C95.7122 30.9069 95.6964 30.8828 95.6857 30.8562C95.6749 30.8296 95.6693 30.8011 95.6693 30.7723V25.632C95.6694 25.6032 95.6639 25.5747 95.6532 25.548C95.6425 25.5214 95.6268 25.4972 95.607 25.4768C95.5872 25.4564 95.5636 25.4403 95.5377 25.4292C95.5118 25.4182 95.484 25.4125 95.4559 25.4125H94.1885C94.1319 25.4124 94.0777 25.3893 94.0377 25.3482C93.9977 25.3071 93.9752 25.2514 93.9752 25.1933V24.4687C93.9752 24.3471 94.0706 24.2492 94.1885 24.2492H98.4168C98.535 24.2492 98.6308 24.3471 98.6308 24.4687V25.1933C98.6307 25.2515 98.6081 25.3072 98.568 25.3483C98.5279 25.3894 98.4735 25.4125 98.4168 25.4125ZM100.176 29.8483L100.639 29.2557C100.657 29.232 100.68 29.2125 100.707 29.1984C100.733 29.1844 100.761 29.1761 100.791 29.1741C100.82 29.1721 100.85 29.1765 100.878 29.1869C100.905 29.1973 100.931 29.2136 100.952 29.2346C101.393 29.672 102.002 29.9686 102.537 29.9686C103.051 29.9686 103.423 29.6969 103.423 29.2181C103.423 28.6167 102.837 28.3926 102.088 28.0551C101.228 27.6687 100.321 27.2297 100.321 26.0399C100.321 24.8461 101.228 24.1614 102.349 24.1614C103.09 24.1614 103.789 24.4457 104.362 24.9158C104.449 24.9878 104.462 25.1201 104.395 25.2131L103.981 25.7896C103.964 25.8133 103.943 25.8333 103.918 25.8484C103.894 25.8634 103.866 25.8732 103.838 25.877C103.809 25.8809 103.78 25.8788 103.753 25.8709C103.725 25.863 103.699 25.8495 103.677 25.8311C103.235 25.4553 102.737 25.2721 102.319 25.2721C101.904 25.2721 101.575 25.4874 101.575 25.9085C101.575 26.4571 102.139 26.6721 102.897 27.006C103.761 27.3967 104.698 27.8794 104.698 29.1348C104.698 30.4251 103.705 31.0748 102.533 31.0748C101.687 31.0748 100.82 30.7266 100.203 30.1515C100.162 30.1141 100.136 30.0618 100.131 30.0055C100.126 29.9491 100.142 29.8929 100.176 29.8483Z" fill="#EEEEEE"/>
<mask id="mask1_366_214" style="mask-type:alpha" maskUnits="userSpaceOnUse" x="0" y="0" width="13" height="32">
<path d="M0.72583 0.00146484H12.0206V31.9997H0.72583V0.00146484Z" fill="white"/>
</mask>
<g mask="url(#mask1_366_214)">
<path fill-rule="evenodd" clip-rule="evenodd" d="M11.9122 28.7735C12.0153 28.5915 12.0466 28.3758 11.9997 28.1708C11.9527 27.9658 11.831 27.7871 11.6596 27.6712C7.95318 25.18 5.5034 20.8848 5.5034 15.9996C5.5034 11.1151 7.95318 6.81995 11.6596 4.32871C11.831 4.21279 11.9526 4.03402 11.9995 3.82906C12.0465 3.62409 12.0152 3.40847 11.9122 3.2264L10.33 0.415494C10.2747 0.317878 10.2007 0.23279 10.1124 0.165391C10.0242 0.0979916 9.92346 0.0496853 9.81644 0.0234012C9.70943 -0.00288292 9.59832 -0.00659715 9.48987 0.0124837C9.38141 0.0315646 9.27786 0.073043 9.1855 0.134404C4.09851 3.48609 0.72583 9.33744 0.72583 16C0.72583 22.6625 4.09819 28.5135 9.1855 31.8655C9.27785 31.9268 9.38138 31.9683 9.48982 31.9874C9.59825 32.0065 9.70933 32.0028 9.81634 31.9765C9.92334 31.9503 10.024 31.902 10.1123 31.8347C10.2006 31.7673 10.2746 31.6823 10.33 31.5848L11.9122 28.7735Z" fill="white"/>
</g>
<path fill-rule="evenodd" clip-rule="evenodd" d="M27.8726 0.415009L26.2908 3.22656C26.1878 3.40851 26.1565 3.62399 26.2034 3.82882C26.2503 4.03365 26.3718 4.21233 26.543 4.32823C30.2494 6.81946 32.6989 11.1149 32.6989 15.9998C32.6989 20.8847 30.2494 25.1798 26.543 27.6714C26.3718 27.7873 26.2503 27.966 26.2034 28.1708C26.1565 28.3756 26.1878 28.5911 26.2908 28.773L27.8726 31.5843C27.9279 31.6818 28.002 31.7669 28.0902 31.8343C28.1785 31.9016 28.2792 31.9499 28.3862 31.9762C28.4932 32.0025 28.6043 32.0062 28.7127 31.9872C28.8212 31.9681 28.9247 31.9267 29.0171 31.8654C34.1047 28.5133 37.4765 22.6623 37.4765 15.9998C37.4765 9.33728 34.1041 3.48625 29.0171 0.133918C28.9247 0.0726241 28.8212 0.0312077 28.7128 0.0121793C28.6043 -0.00684897 28.4932 -0.00309289 28.3863 0.0232199C28.2793 0.0495328 28.1786 0.0978543 28.0904 0.165256C28.0022 0.232657 27.9282 0.317735 27.873 0.415333" fill="white"/>
</svg>
