<svg xmlns="http://www.w3.org/2000/svg" width="58" height="56" viewBox="0 0 58 56">
    <g fill="none" fill-rule="nonzero">
        <path fill="#2B5FCE" d="M39.408 45H53.99C56.2 45 58 43.212 58 41.007V3.993A4.004 4.004 0 0 0 53.99 0H4.01C1.8 0 0 1.788 0 3.993v37.014A4.004 4.004 0 0 0 4.01 45h14.582l-1.87 8.084C16.351 54.691 17.39 56 19.045 56h19.91c1.659 0 2.695-1.306 2.323-2.916L39.408 45z"/>
        <path fill="#F0F4F6" d="M53 7.002C53 5.9 52.144 5 51.089 5H6.91C5.854 5 5 5.896 5 7.002v28.996C5 37.1 5.856 38 6.911 38H51.09C52.146 38 53 37.104 53 35.998V7.002z"/>
    </g>
</svg>
