<svg xmlns="http://www.w3.org/2000/svg" width="66" height="56" viewBox="0 0 66 56">
    <g fill="none" fill-rule="nonzero">
        <path fill="#2B5FCE" d="M12.774 4.234C12.774 1.896 14.684 0 17.04 0h44.694C64.09 0 66 1.895 66 4.232v44.375C66 52.69 62.663 56 58.555 56H7.452v-6.34h5.322V4.234zm10.474 9.775c0 .835.689 1.5 1.538 1.5H55.57c.848 0 1.538-.671 1.538-1.5 0-.834-.688-1.5-1.538-1.5H24.786c-.848 0-1.538.672-1.538 1.5zm0 8.585c0 .834.689 1.5 1.538 1.5H55.57c.848 0 1.538-.672 1.538-1.5 0-.834-.688-1.5-1.538-1.5H24.786c-.848 0-1.538.672-1.538 1.5zm0 8.584c0 .835.689 1.5 1.538 1.5H55.57c.848 0 1.538-.671 1.538-1.5 0-.834-.688-1.5-1.538-1.5H24.786c-.848 0-1.538.672-1.538 1.5zm0 8.585c0 .834.689 1.5 1.538 1.5h17.687c.848 0 1.538-.672 1.538-1.5 0-.834-.689-1.5-1.538-1.5H24.786c-.848 0-1.538.672-1.538 1.5z"/>
        <path fill="#85BBFF" d="M0 16.912c0-2.338 1.912-4.233 4.254-4.233h8.52v36.975C12.774 53.16 9.907 56 6.387 56 2.86 56 0 53.158 0 49.654V16.912z"/>
    </g>
</svg>
