<svg xmlns="http://www.w3.org/2000/svg" width="58" height="56" viewBox="0 0 58 56">
    <g fill="none" fill-rule="nonzero">
        <path fill="#85BBFF" d="M39.647 4.288L30.914.8c-1.062-.424-2.77-.422-3.828 0L1.914 10.856C.852 11.28 0 12.518 0 13.625v28.82c0 1.108.857 2.346 1.914 2.768L27.086 55.27c1.062.424 2.77.422 3.828 0l25.172-10.057C57.148 44.789 58 43.551 58 42.444v-28.82c0-1.108-.857-2.346-1.914-2.768l-9.058-3.619L17.581 18.61c-.576.222-1.01.838-1.01 1.39v10l-7.25-3V17c0-.547.434-1.168.97-1.374L39.647 4.288z"/>
        <path fill="#2B5FCE" d="M56.086 12.385c1.057-.422 1.914.13 1.914 1.24v28.82c0 1.106-.852 2.344-1.914 2.768L30.914 55.27c-1.057.422-1.914-.13-1.914-1.24V25.211c0-1.107.852-2.345 1.914-2.769l25.172-10.057z"/>
    </g>
</svg>
