<svg xmlns="http://www.w3.org/2000/svg" xmlns:xlink="http://www.w3.org/1999/xlink" width="169" height="48" viewBox="0 0 169 48">
    <defs>
        <path id="a" d="M.29.133h19.654v32.46H.29z"/>
        <path id="c" d="M0 .166h19.658v32.427H0z"/>
        <path id="e" d="M.274.291h37.63v21.991H.274z"/>
        <path id="g" d="M.09.251h113.334v27.361H.09z"/>
    </defs>
    <g fill="none" fill-rule="evenodd">
        <g transform="translate(21.333 15.116)">
            <mask id="b" fill="#fff">
                <use xlink:href="#a"/>
            </mask>
            <path fill="#2B5FCE" d="M17.793 23.096s-3.45 2.442-7.676 4.983c-4.226 2.541-7.677 4.25-7.677 4.25-1.018.612-1.843.123-1.843-1.091 0 0-.307-4.303-.307-8.974 0-4.672.307-9.343.307-9.343 0-1.215.825-2.696 1.843-3.308 0 0 3.304-2.353 7.677-4.982C14.489 2 17.793.38 17.793.38c1.018-.612 1.743-.031 1.843 1.09.1 1.123.308 3.02.308 8.974 0 5.954-.308 9.344-.308 9.344 0 1.214-.825 2.695-1.843 3.307" mask="url(#b)"/>
        </g>
        <path fill="#FFF" d="M38.745 30.36l-2.771-2.33c-.374-.315-.856-.213-1.07.226l-1.682 3.435.002.006-3.167-2.664c-.374-.314-.856-.212-1.07.227l-5.121 10.465c-.215.439-.048.592.37.34l9.95-5.983 4.478-2.692c.418-.252.455-.716.081-1.03"/>
        <path fill="#B99BF9" d="M33.815 26.236c0 .487-.331 1.081-.74 1.327-.409.245-.74.05-.74-.438 0-.487.331-1.081.74-1.327s.74-.05.74.438"/>
        <g transform="translate(0 15.116)">
            <mask id="d" fill="#fff">
                <use xlink:href="#c"/>
            </mask>
            <path fill="#2B5FCE" d="M.312 19.789s-.308-3.39-.308-9.344C-.037 4.952.23 2.51.312 1.472.394.435 1.089-.186 2.155.382c0 0 3.304 1.62 7.676 4.249 4.373 2.629 7.676 4.982 7.676 4.982 1.018.612 1.844 2.093 1.844 3.308 0 0 .307 4.671.307 9.343 0 4.671-.307 8.974-.307 8.974 0 1.214-.826 1.703-1.844 1.09 0 0-3.45-1.708-7.676-4.25a138.294 138.294 0 0 1-7.676-4.982C1.137 22.484.312 21.003.312 19.79" mask="url(#d)"/>
        </g>
        <path fill="#FFF" d="M8.227 23.057l-5.2-3.167c-.232-.148-.42-.06-.42.196v14.24c0 .257.188.585.42.732l5.2 3.168c.233.148.421.06.421-.196V23.79c0-.257-.188-.585-.42-.733M15.944 28.112l-5.595-3.561c-.232-.148-.42-.06-.42.196v5.775c0 .256.188.583.42.73l5.595 3.562c.232.148.42.06.42-.196v-5.775c0-.256-.188-.583-.42-.73"/>
        <path fill="#B99BF9" d="M15.943 43.28l-5.594-3.56c-.232-.148-.42-.476-.42-.732v-5.774c0-.256.188-.344.42-.197l5.594 3.561c.233.148.42.476.42.732v5.774c0 .256-.187.344-.42.196"/>
        <g transform="translate(1.481 .005)">
            <mask id="f" fill="#fff">
                <use xlink:href="#e"/>
            </mask>
            <path fill="#2B5FCE" d="M37.151 12.417s-3.285 2.3-7.703 4.886a143.158 143.158 0 0 1-8.35 4.511c-1.064.623-2.795.625-3.866.003 0 0-4.278-2.107-8.397-4.497-4.119-2.39-7.754-4.873-7.754-4.873-1.071-.622-1.076-1.63-.012-2.254 0 0 3.132-2.21 7.703-4.886a136.599 136.599 0 0 1 8.35-4.511c1.064-.623 2.463-.72 3.867-.004 1.403.717 3.147 1.452 8.396 4.498 5.25 3.046 6.799 4.206 7.754 4.873.956.668 1.077 1.63.012 2.254" mask="url(#f)"/>
        </g>
        <path fill="#FFF" d="M13.876 9.518c-.659-.382-.547-.76.25-.837l8.274-.815c.796-.078 1.27.49 1.051 1.261l-1.045 3.707c-.217.772-.934 1.091-1.593.71l-6.937-4.026z"/>
        <path fill="#B99BF9" d="M34.694 11.056l-14.45 8.46-.969-.563 14.45-8.459z"/>
        <path fill="#FFF" d="M23.756 16.895c.625.362.628.95.007 1.313-.62.364-1.63.365-2.254.002-.625-.362-.628-.95-.007-1.314.62-.363 1.63-.364 2.254-.001"/>
        <g transform="translate(55.111 9.487)">
            <mask id="h" fill="#fff">
                <use xlink:href="#g"/>
            </mask>
            <path fill="#0B1528" d="M101.74 26.553V9.592c0-.452.243-.712.711-.712h3.976c.452 0 .712.26.712.712v1.597c0 .642.347.781.781.26a7.857 7.857 0 0 1 4.723-2.656c.503-.087.78.191.78.66v3.94c0 .417-.242.712-.711.712-3.472.174-5.295 1.598-5.295 4.81v7.638c0 .47-.243.712-.712.712h-4.254c-.468 0-.711-.243-.711-.712zm-9.18-10.85c.503 0 .78-.278.607-.782-.556-1.527-1.945-2.413-3.75-2.413-1.806 0-3.23.868-3.906 2.379-.209.503.104.816.607.816h6.441zM79.537 18.08c0-5.347 4.028-9.583 9.827-9.583 5.278 0 9.357 3.594 9.41 9.323l-.018.503c-.035.417-.295.677-.729.677H85.893c-.452 0-.782.278-.643.781.434 2.188 2.188 3.403 4.306 3.403 1.51 0 2.882-.59 3.767-1.788.278-.364.573-.503.955-.312l3.177 1.337c.434.173.59.486.4.833-1.511 2.69-4.462 4.357-8.3 4.357-6.076 0-10.017-4.2-10.017-9.53zm-30.673 8.472V9.592c0-.452.243-.712.712-.712h4.253c.469 0 .712.26.712.712v.677c0 .642.347.746.798.278 1.181-1.25 2.726-2.014 4.584-2.014 2.17 0 3.854.711 4.86 2.274.261.434.54.469.869.07 1.267-1.459 3.004-2.344 5.121-2.344 3.699 0 6.13 2.1 6.13 6.076v11.944c0 .47-.261.712-.713.712h-4.253c-.469 0-.712-.243-.712-.712V16.015c0-1.823-1.06-2.916-2.674-2.916-1.857 0-2.812 1.388-2.812 3.246v10.208c0 .47-.26.712-.712.712H60.74c-.469 0-.712-.243-.712-.712V16.015c0-1.823-1.024-2.916-2.656-2.916-1.858 0-2.83 1.388-2.83 3.246v10.208c0 .47-.243.712-.712.712h-4.253c-.47 0-.712-.243-.712-.712zm-8.382-8.489c0-2.83-2.153-4.792-4.81-4.792-2.673 0-4.791 1.892-4.791 4.792 0 2.916 2.118 4.774 4.792 4.774 2.656 0 4.809-1.91 4.809-4.774zm-14.983 0c0-5.608 4.358-9.531 10.191-9.531 5.816 0 10.208 3.923 10.208 9.531 0 5.625-4.392 9.548-10.208 9.548-5.833 0-10.19-3.923-10.19-9.548zM9.393 25.651c-.382-.226-.452-.556-.226-.973l1.528-2.708c.208-.417.572-.486.954-.19 1.546.954 3.542 1.7 5 1.7 1.164 0 1.945-.468 1.945-1.371 0-1.233-1.65-1.597-3.594-2.274-2.396-.816-5.312-1.858-5.312-5.556 0-3.941 3.28-5.746 7.066-5.746 2.083 0 4.27.52 6.145 1.562.417.226.487.556.226.972l-1.527 2.396c-.244.382-.573.452-.955.226-1.25-.643-2.848-1.163-3.959-1.163-1.024 0-1.718.416-1.718 1.163 0 1.111 1.753 1.424 3.802 2.083 2.465.834 5.26 1.98 5.26 5.834 0 4.062-3.142 6.006-7.292 6.006-2.586 0-5.295-.763-7.343-1.961zm-8.99.902V9.592c0-.452.243-.712.712-.712h4.219c.468 0 .711.26.711.712v16.961c0 .47-.243.712-.711.712h-4.22c-.468 0-.711-.243-.711-.712zM.09 3.376C.09 1.64 1.514.251 3.267.251a3.134 3.134 0 0 1 0 6.268c-1.753 0-3.176-1.39-3.176-3.143z" mask="url(#h)"/>
        </g>
    </g>
</svg>
