<svg xmlns="http://www.w3.org/2000/svg" width="80" height="80" viewBox="0 0 80 80">
    <g fill="none" fill-rule="evenodd">
        <path fill="#CBF0C0" d="M80 40c0 22.091-17.909 40-40 40S0 62.091 0 40 17.909 0 40 0s40 17.909 40 40"/>
        <path fill="#22C288" d="M57.5 31.25h-35a2.5 2.5 0 0 1-2.5-2.5v-7.5a2.5 2.5 0 0 1 2.5-2.5h35a2.5 2.5 0 0 1 2.5 2.5v7.5a2.5 2.5 0 0 1-2.5 2.5"/>
        <path fill="#FFF" d="M56.25 25a2.5 2.5 0 0 1-5 0 2.5 2.5 0 0 1 5 0"/>
        <path fill="#22C288" d="M57.5 46.25h-35a2.5 2.5 0 0 1-2.5-2.5v-7.5a2.5 2.5 0 0 1 2.5-2.5h35a2.5 2.5 0 0 1 2.5 2.5v7.5a2.5 2.5 0 0 1-2.5 2.5"/>
        <path fill="#FFF" d="M56.25 40a2.5 2.5 0 0 1-5 0 2.5 2.5 0 0 1 5 0"/>
        <path fill="#22C288" d="M57.5 61.25h-35a2.5 2.5 0 0 1-2.5-2.5v-7.5a2.5 2.5 0 0 1 2.5-2.5h35a2.5 2.5 0 0 1 2.5 2.5v7.5a2.5 2.5 0 0 1-2.5 2.5"/>
        <path fill="#FFF" d="M56.25 55a2.5 2.5 0 0 1-5 0 2.5 2.5 0 0 1 5 0"/>
    </g>
</svg>
