<svg xmlns="http://www.w3.org/2000/svg" width="80" height="80" viewBox="0 0 80 80">
    <g fill="none" fill-rule="evenodd">
        <path fill="#CBF0C0" d="M80 40c0 22.091-17.909 40-40 40S0 62.091 0 40 17.909 0 40 0s40 17.909 40 40"/>
        <g fill-rule="nonzero" transform="translate(18 21)">
            <path fill="#0CA26B" d="M0 2.995A3 3 0 0 1 3.005 0h38.99A3 3 0 0 1 45 2.995V10.5H0V2.995z"/>
            <path fill="#22C288" d="M0 10h45v24.007A3 3 0 0 1 41.995 37H3.005A2.998 2.998 0 0 1 0 34.007V10z"/>
            <g fill="#FFF">
                <path d="M18.984 18.224l-1.687-1.61-4.931 5.188 4.927 5.195 1.695-1.606-3.402-3.59zM26.016 18.224l3.398 3.578-3.402 3.59 1.695 1.605 4.927-5.195-4.93-5.188zM19.48 27.65l3.81-12.377 2.23.686-3.81 12.377z"/>
            </g>
            <rect width="6" height="4.5" x="3" y="3" fill="#FFF" rx="1"/>
            <rect width="30" height="4.5" x="12" y="3" fill="#FFF" rx="1"/>
        </g>
    </g>
</svg>
