<svg xmlns="http://www.w3.org/2000/svg" width="80" height="80" viewBox="0 0 80 80">
    <g fill="none" fill-rule="evenodd">
        <path fill="#CBF0C0" d="M80 40c0 22.091-17.909 40-40 40S0 62.091 0 40 17.909 0 40 0s40 17.909 40 40"/>
        <path fill="#0CA26B" d="M40 63.438l-24.276-10.79A1.219 1.219 0 0 1 15 51.534V23.955a1.22 1.22 0 0 1 1.715-1.114L40 33.19v30.248z"/>
        <path fill="#22C288" d="M63.357 22.81L39.999 33.19v30.247l24.307-10.802a1.17 1.17 0 0 0 .693-1.07V23.878c0-.845-.87-1.411-1.642-1.067"/>
        <path fill="#0CA26B" d="M39.998 23.438c-5.173 0-9.52-2.914-10.833-6.875a7.897 7.897 0 0 0-.418 2.5c0 5.178 5.038 9.375 11.25 9.375 6.214 0 11.25-4.197 11.25-9.375 0-.867-.152-1.702-.416-2.5-1.315 3.961-5.66 6.875-10.834 6.875"/>
    </g>
</svg>
